<svg width="595" height="842" viewBox="0 0 595 842" fill="none" xmlns="http://www.w3.org/2000/svg">
<rect width="595" height="842" fill="white"/>
<path d="M138.5 81.9166C138.5 79.0377 133.979 77.9111 131.937 80.2894C114 102.945 139.667 103.947 139.667 114.962C139.667 119.468 135.292 123.098 130.187 122.973C124.937 122.973 121 119.343 121 114.962V104.197C121 101.443 117.062 100.192 114.875 102.194C110.937 105.699 107 111.707 107 118.967C107 132.235 119.542 143 135 143C150.312 143 163 132.235 163 118.967C163 97.6881 138.5 94.8092 138.5 81.9166Z" fill="#E85858"/>
</svg>
