<svg width="176" height="200" viewBox="0 0 176 200" fill="none" xmlns="http://www.w3.org/2000/svg">
<path d="M172.375 135.156L159.094 127.344L169.25 124.609C172.375 123.828 174.328 120.312 173.547 117.188L171.984 111.328C171.203 108.203 167.688 106.25 164.562 107.031L136.828 114.453L111.828 100L136.828 85.9375L164.562 93.3594C167.688 94.1406 171.203 92.1875 171.984 89.0625L173.547 83.2031C174.328 80.0781 172.375 76.5625 169.25 75.7812L159.094 73.0469L172.375 65.2344C175.109 63.6719 176.281 60.1562 174.328 57.0312L168.469 46.4844C166.906 43.75 163 42.9688 160.266 44.5312L146.984 51.9531L149.719 41.7969C150.5 38.6719 148.547 35.5469 145.422 34.375L139.562 32.8125C136.438 32.0312 133.312 33.9844 132.141 37.1094L124.719 64.8438L100.5 78.9062V48.8281L121.203 27.7344C123.547 25.3906 123.547 21.4844 121.203 18.75L116.906 14.4531C114.562 12.1094 110.656 12.1094 107.922 14.4531L100.5 22.2656V6.25C100.5 3.125 97.375 0 94.25 0H81.75C78.2344 0 75.5 3.125 75.5 6.25V22.2656L67.6875 14.4531C65.3437 12.1094 61.0469 12.1094 58.7031 14.4531L54.4062 18.75C52.0625 21.4844 52.0625 25.3906 54.4062 27.7344L75.5 48.8281V78.9062L50.8906 64.8438L43.4687 37.1094C42.6875 33.9844 39.1719 32.0312 36.0469 32.8125L30.1875 34.375C27.0625 35.5469 25.1094 38.6719 25.8906 41.7969L28.625 51.9531L15.3437 44.5312C12.6094 42.5781 8.70312 43.75 7.14062 46.4844L1.28124 57.0312C-0.671882 60.1562 0.499993 63.6719 3.23437 65.2344L16.5156 73.0469L6.35937 75.7812C3.23437 76.5625 1.28124 79.6875 2.06249 83.2031L3.62499 89.0625C4.40624 92.1875 7.92187 94.1406 11.0469 93.3594L38.7812 85.9375L63.7812 100L38.7812 114.453L11.0469 107.031C7.92187 106.25 4.40624 108.203 3.62499 111.328L2.06249 117.188C1.28124 120.312 3.23437 123.828 6.35937 124.609L16.5156 127.344L3.23437 135.156C0.499993 136.719 -0.671882 140.234 1.28124 143.359L7.14062 153.906C8.70312 156.641 12.6094 157.422 15.3437 155.859L28.625 148.438L25.8906 158.594C25.1094 161.719 27.0625 164.844 30.1875 166.016L36.0469 167.578C39.1719 168.359 42.2969 166.406 43.4687 163.281L50.8906 135.547L75.1094 121.484V151.562L54.4062 172.656C51.6719 175 51.6719 178.906 54.4062 181.641L58.7031 185.938C61.0469 188.281 64.9531 188.281 67.6875 185.938L75.1094 178.125V193.75C75.1094 197.266 78.2344 200 81.3594 200H93.8594C97.375 200 100.109 197.266 100.109 193.75V178.125L107.922 185.938C110.266 188.281 114.172 188.281 116.906 185.938L121.203 181.25C123.547 178.906 123.547 175 121.203 172.656L100.5 151.562V121.484L124.719 135.547L132.141 163.281C133.312 166.406 136.438 168.359 139.562 167.578L145.422 166.016C148.547 164.844 150.5 161.719 149.719 158.594L146.984 148.438L160.266 155.859C163 157.422 166.906 156.641 168.469 153.516L174.328 143.359C176.281 140.234 175.109 136.719 172.375 135.156Z" fill="#46B1D3"/>
</svg>
